<svg xmlns="http://www.w3.org/2000/svg" viewBox="0 0 1501 753" width="1501" height="753"><style>.a{fill:#0c2972}.b{fill:#a80e2f}.c{fill:#001c5a}.d{fill:#fff}.e{fill:#102a7d}.f{fill:#eff8fe}</style><path fill-rule="evenodd" class="a" d="m3.6 245c229.4 0 457.8 0 687.2 0 0.9 3.1 2.3 6.3 2.7 9.7 1.9 14.8 3.5 29.6 5.3 44.4 0.8 7 1.8 14 2.5 21.1 1.1 10.8 1.9 21.6 3.2 32.4 1.2 10.5 2.9 21 4.3 31.5q1.5 11.3 2.7 22.6c1.2 10 2.1 20.1 3.2 30.1 1.3 11.3 2.5 22.6 4.3 33.8 1 6.2 1.5 6.3 7.4 6.3 15.7 0.1 31.5-0.1 47.2 0.2 5.2 0 7.5-2.7 9.7-6.8 19.1-35.7 38.3-71.2 57.5-106.9 35.9-66.5 71.8-133 107.5-199.6 2.9-5.4 6.4-7.4 12.5-7.4 176.6 0.2 353.2 0.2 529.8 0.2 2.7 0 5.5 0.2 8.8 0.4 0.3 2.9 0.6 5.3 0.6 7.7 0.1 109.5 0 218.9 0.1 328.4 0 38.4-26.4 77-66.8 89.4-10.4 3.2-21.1 4.9-32.1 4.9-433 0-866 0-1299-0.1-42.2 0-76.9-23.3-92.3-62-4.6-11.6-6.9-23.9-6.9-36.4q-0.1-118.2 0-236.4c0-2.2 0.3-4.4 0.6-7.5zm172.3 229c1.9 0.5 2.9 0.7 3.8 1 19.8 8.2 40 8.1 60.3 2.6 25.5-6.9 45.3-22 60.4-43.5 17.9-25.5 25.7-54.2 25.6-85.1 0-12.2-2.4-24.2-7.4-35.5-10.5-23.1-28.2-35.7-54-36.4-23.2-0.6-42.2 8.5-58.3 24.7-1.4 1.4-3 2.8-4.4 4.1q-0.6-0.4-1.2-0.8c0.8-7.9 1.6-15.9 2.4-23.7-6.8-2.2-45-2.2-52.2-0.1-11.3 91.6-33 181.7-48.4 272.9 1.8 0.6 2.7 1.2 3.6 1.2 16.5 0.1 33 0.1 49.4 0.2 4.2 0 5.7-2.6 6.3-6.3q2.8-15.7 5.7-31.3c2.7-14.4 5.5-28.8 8.4-44zm1047.2-279c-1.9-0.6-2.8-1.2-3.7-1.2-16.5-0.1-32.9-0.1-49.4-0.2-4.4 0-5.4 2.9-6.1 6.4-4.6 24.1-9.2 48.2-13.8 72.3-0.5 2.6-1.5 5.1-2.4 8-5-1-9.1-2.3-13.3-2.7-36.4-3.9-68.2 6.6-94.7 31.8-24.1 23-36.6 51.9-40 84.7-1.7 15.4-0.6 30.8 4.5 45.8 9.7 28.3 35.2 44.8 64.2 41.1 19.7-2.5 36-11.5 48.9-26.6 1.5-1.8 3.2-3.5 6-6.6-0.7 10.4-1.3 19-1.8 27.4 8.4 2.3 47.2 2 53-0.2 0.1-1.1 0.4-2.3 0.5-3.6 1.9-32.1 7.6-63.8 13.7-95.4 4.8-24.8 9.7-49.6 14.4-74.5q6.3-32.8 12.5-65.6c2.5-13.4 4.9-26.8 7.5-40.9zm110 280.9c2.9 0.4 4.4 0.8 5.8 0.8 13.7 0 27.4 0.1 41.1 0 6.4-0.1 6.6-0.5 6.8-7.1 0.8-31.2 4.2-62.1 10.3-92.7 5.7-28 11.4-56 17.1-84 1.1-5.5 0.5-6.4-5.1-7.9-30.7-8.4-61.8-10.8-93.2-4.8-20.9 4-40.3 12.2-56.6 26-37 31.1-51.4 71.6-48.2 118.9 0.7 11.4 4.9 22.2 11.4 31.8 14.8 21.8 42.7 30.2 69.6 20.7 15.6-5.5 27.6-15.5 37.1-28.9 1.6-2.2 2.4-5.4 6-6.4-0.7 11.4-1.4 22.2-2.1 33.6zm-740.9-199.2c-43.9-0.1-77.4 19.7-97.6 50.2-17.5 26.6-24.4 56.1-20 87.6 4.2 30.9 21.1 52.6 51.1 61.9 38.8 11.9 74.7 4 105.2-22.2 33.5-28.6 45.4-66.7 40.7-109.9-2.8-25.5-15.8-45.1-38.5-57.6-13.7-7.5-28.5-10.3-40.9-10zm-203.7 198.8c0.4-1.7 1.1-3.6 1.5-5.6 4.1-21.6 8.1-43.2 12.2-64.8 2.7-14.2 6.5-28.1 13.4-40.9 10.8-20 27.1-30.9 50.3-30.4 6 0.2 6.2 0 7.5-6 3.3-15.3 6.3-30.7 9.4-46 0.2-1.2-0.3-2.4-0.4-3.9-11.3-1.7-21.9-0.9-32.3 3.4-15.5 6.6-26.6 18.1-35.7 31.8-1 1.5-2.2 2.9-3.4 4.4-0.7-12 2.5-23.4 1.4-35.6-3.3-0.2-6-0.6-8.7-0.6q-14.5-0.1-28.9 0c-13.9 0-12.2-1.1-14 12.5-2.2 16.8-3.7 33.7-6.1 50.5-2.2 14.5-5.1 28.9-7.8 43.3-4.9 26.3-9.9 52.7-14.9 79-0.5 2.9-0.8 5.8-1.2 8.6 6.9 2 50.4 2.1 57.7 0.3zm511.3 0.6c3.7 0.3 6.4 0.6 9.1 0.6 12.6 0.1 25.3 0.1 38 0 11.9-0.1 10.8 1.9 13.3-11.1 5-25.1 9.4-50.3 14.2-75.3 6.4-33.8 13-67.6 19.5-101.3 0.4-2.2 0.3-4.4 0.4-6.7-1.9-0.5-3.1-0.9-4.3-0.9-16-0.1-31.9 0-47.9-0.2-4.1 0-5.9 2-6.5 5.8-1.7 9.2-3.5 18.4-5.2 27.5-4 20.7-8 41.3-11.9 61.9q-7.5 39.1-14.9 78.2c-1.3 6.9-2.5 13.8-3.8 21.5zm107.9-250.4c0.1-11.6-5.6-21.4-15.1-26-16.1-7.8-36.9-0.7-44.8 15.4-7.8 16-2.2 34.5 12.9 40.7 18.9 7.8 47-2.7 47-30.1z"></path><path class="b" d="m0.4 211.3c0-3.7 0-6.2 0-8.7 0-34.7 0-69.4 0.1-104.1 0-43 24.3-77.8 64.6-92.9 10.5-3.9 21.6-4.9 32.8-5.4 2.5-0.1 5.1 0 7.6 0q643.1 0 1286.2 0c12.2 0 24.4 0.3 36.1 4 34.3 11 56.4 33.8 66 68.4 4.5 16.1 2.6 32.6 2.7 49.8-3.7 0.2-6.9 0.5-10 0.5q-114.1 0.1-228.1 0.1c-111.7 0-223.5 0-335.2-0.2-8.1-0.1-12.3 2.5-15.9 9.5-38.9 74.6-78.2 149-117.3 223.5-9 17-17.8 34.1-26.8 51.1-0.9 1.7-2.1 3.3-3.9 6.1-3.8-11.8-2.5-23-4.6-33.8-2-10.9-2-22.1-3.2-33.2-1.2-11.3-2.9-22.5-4.2-33.8-1.3-11-2.3-22.1-3.4-33.2-1.1-11-2.1-22.1-3.3-33.1-1.3-11-2.9-21.9-4.4-33.5-4-0.2-7.2-0.6-10.4-0.6q-101.5 0-203 0-255.4 0-510.8 0c-3.5 0-7-0.3-11.6-0.5z"></path><path fill-rule="evenodd" class="c" d="m754.5 750.1c-0.3-4.3-0.4-6.9-0.7-10.9-2.8 2.6-4.7 4.4-6.8 6-7.8 6.1-16.2 9.3-26 4.9-7.3-3.3-11.8-9.2-13.1-16.7-3.3-19.8 1-37.9 15.3-52.5 10.4-10.6 23-15.2 38-12.3 0.7 0.2 1.4 0 3 0 0.9-3.2 2-6.5 2.7-9.8 1.2-6.5 2.2-13 3.4-19.4 1-5.6 1.6-6.1 7.5-6.3 4.8-0.1 9.5 0 15.2 0-0.2 3.5-0.1 6.2-0.5 8.8-4.8 24.8-9.8 49.6-14.4 74.4-1.7 9-2.6 18-3.8 27-0.8 6.4-0.9 6.7-7.4 6.8-4 0.1-8 0-12.4 0zm-24.5-31.3c0 1.3 0.1 3.1 0.3 4.8 0.4 4.4 2.4 7.7 6.6 9.4 4.4 1.8 8-0.1 10.9-3.1 2.5-2.6 5.3-5.8 6.3-9.2 2.8-9.9 4.8-20 6.9-30.1 0.7-3.5-2-5-4.9-5.6-5.7-1.3-10.5 0.8-14.5 4.7-7.9 7.8-11.3 17.6-11.6 29.1z"></path><path class="c" d="m106 682.8c12.2 0 23 0 33.9 0 0.2 2.3 0.7 3.6 0.5 4.8-0.9 4.4-1.9 8.8-3 13.8-2.3 0.3-4.5 0.6-6.7 0.7-7.6 0-15.2 0.1-22.8 0-3.9-0.1-6.1 1.1-6.7 5.3-0.8 6-2.3 12-3.4 17.9-0.2 1.5 0.1 3 0.2 5.4 12.5 0.2 24.8 0.4 38.2 0.7-1.3 6.6-2.3 12.2-3.5 18.2-20.7 0-40.8 0-62.1 0 7.1-37.3 14.1-73.9 21.1-110.8 20.1 0 39.4 0 59.9 0-1.3 6.6-2.4 12.4-3.7 19-6.6 0-12.6 0-18.7 0-4 0-8.1-0.1-12.1 0-5.9 0.2-6.5 0.7-7.6 6.2-1.1 5.7-2.1 11.3-3.5 18.8z"></path><path fill-rule="evenodd" class="c" d="m370.4 749.6c-6.7 0-12.6 0-18.9 0 0-4 0-7.5 0-12.3-2.3 1.8-3.6 2.9-5.1 4-4 2.9-7.6 6.7-12.1 8.7-12 5.5-25-0.6-29-13.3-4.4-13.8-1.4-27.1 4.4-39.7 9.9-21.3 29.6-30.8 53.5-29.4 4.5 0.2 9 1.1 13.5 1.9 5.6 1.1 6.2 2.1 5.1 7.7-2.1 11.1-4.6 22.2-6.4 33.4-1.8 11.2-2.9 22.6-4.3 33.8-0.2 1.5-0.4 3-0.7 5.2zm-12.7-64c-9.2-1.7-13-0.8-18.4 4.5-8.9 8.6-12.4 19.5-12.9 31.5-0.1 1.9 0.5 4 1.3 5.8 2.4 6.4 7.9 8.4 13.2 4.1 3.5-2.9 6.7-7 8.5-11.2 2.6-6 4-12.5 5.5-18.9 1.2-5.1 1.8-10.3 2.8-15.8z"></path><path fill-rule="evenodd" class="c" d="m599.1 749.6c-6.1 0-12.1 0-18.6 0-0.4-3.7-0.8-7.2-1.3-12.6-2.8 3-4.3 4.9-6 6.5-7 6.6-15 10.6-24.8 7.7-8.4-2.5-13.7-8.8-15.2-17.3-4.2-23.3 6-49.2 27.2-60.3 10.2-5.3 21.1-6.9 32.4-6 4.3 0.4 8.5 1.1 12.7 1.9 5.2 1 6 2 5.1 7.2-1.8 10-4.1 19.9-5.6 29.8-2 13-3.4 26.1-5.1 39.1-0.2 1.2-0.5 2.4-0.8 4zm-12.9-63.6c-7.3-2.1-10-1.7-15.1 1.5-10.4 6.7-18.2 26.5-15.3 38.5 1.7 6.9 8.1 9.8 13.9 5.5 3.1-2.3 5.7-5.7 7.5-9.2 5.8-11.2 6.8-23.7 9-36.3z"></path><path class="c" d="m997.3 641.3c-2.1 6-4 11.4-6 17.3-2.7-0.4-4.9-0.7-7.1-1.1-20.8-4-37.6 5.7-44.7 25.9-3.1 9-3.9 18.3-2.7 27.7 1.6 12.3 10.8 20.7 23.2 20.9 6.2 0.1 12.5-0.9 19.2-1.4 2.3 4.3 1.7 9.4 1.5 14.3 0 1.5-2.1 3.7-3.6 4.1-13.2 3.6-26.4 4.7-39.5-0.6-16.4-6.6-24.3-19.7-25.4-36.5-1.5-22.3 4.1-42.7 21.1-58.6 16.6-15.5 36.5-18.5 58.1-14.7 1.6 0.3 3.1 1.4 5.9 2.7z"></path><path class="c" d="m638.5 749.5c-7.5 0-14.4 0-21.9 0 1.8-10.2 3.5-19.6 5.2-29 2.6-14.4 5.3-28.8 7.9-43.2 1.4-8 1.4-8 9.7-8.1 3.2 0 6.5 0 10 0 0.4 3.7 0.7 6.6 1.1 10.6 2.6-2.2 4.4-3.8 6.4-5.3 8-6 16.8-8.9 26.9-5.8 5.3 1.7 9 5.1 10.2 10.3 1 4.4 2 9.1 1.3 13.5-2.8 17.9-6.1 35.8-9.5 53.7-0.3 1.5-2.5 3.5-3.9 3.6-5.9 0.4-11.9 0.2-19 0.2 1.4-8 2.6-14.9 3.9-21.8 1.6-9.2 3.3-18.4 4.9-27.6 0.3-1.8 0.5-3.5 0.4-5.3-0.2-3.6-0.4-7.2-4.4-8.9-3.8-1.6-7-0.2-9.8 2.1-6.4 5.3-9.4 12.5-11 20.3-2.6 12.4-4.9 24.8-7.4 37.2-0.2 1-0.5 1.9-1 3.5z"></path><path class="c" d="m182.3 670.1c0.2 3.1 0.4 5.8 0.6 9.8 2.7-2.2 4.4-3.8 6.3-5.3 7.5-5.9 15.9-8.7 25.5-6.3 7.2 1.8 11.8 6.4 12.4 13.6 0.5 7 0.4 14.2-0.7 21.1-2.1 14-5.2 27.9-7.8 41.8-0.5 3.1-1.7 5.3-5.2 5.3-5.5 0-11.1 0-17.3 0 0-2.7-0.3-4.7 0.1-6.5 2.1-11.2 4.4-22.3 6.4-33.5 0.9-5.2 1.4-10.5 1.7-15.8 0.2-3.1-0.5-6.1-3.8-7.7-3.7-1.9-7-0.6-9.9 1.7-6.1 4.7-9.2 11.3-10.8 18.6-2.7 12.6-5.1 25.3-7.6 37.9-0.3 1.5-0.7 2.9-1.2 4.8-7.1 0-14.1 0-22 0 1.3-7.1 2.4-13.7 3.6-20.3 3.2-17.7 6.5-35.3 9.6-53 1.1-6.6 1.2-6.9 8.2-7.1q4.5 0 9.1 0.1c0.7 0.1 1.4 0.4 2.8 0.8z"></path><path class="c" d="m1187.9 669.9c0 3.2 0 5.6 0 8.3 3.4 0.7 4.7-1.9 6.5-3.3 8-6.2 16.7-9.3 26.9-6.3 5.3 1.5 9.1 4.7 10.5 9.9 1.1 3.8 2.3 8.1 1.7 11.9-3 19.6-6.6 39.2-10 59.2-7.8 0-14.8 0-22.6 0 1.2-6.9 2.4-13.3 3.5-19.7 1.8-9.9 3.8-19.8 5.4-29.8 0.5-2.9 0.4-6.1-0.3-9-1.1-4.6-4.8-6.2-9.4-4.8-5 1.5-7.9 5.3-10.3 9.5-4.9 8.3-6 17.7-7.8 26.8-1.4 7.2-2.8 14.4-4 21.6-0.7 4.2-2.5 6.4-7 6-5.2-0.5-10.5 0.9-16.3-1.3 4.9-26.4 9.8-52.6 14.7-79 6.4 0 12.3 0 18.5 0z"></path><path class="c" d="m388 748.8c4.9-26.4 9.7-52.4 14.6-79 6.3 0 12.4 0 18.8 0 0 3.1 0 5.6 0 8.2 2.9 1 4.1-1.3 5.7-2.6 5.3-4.7 11.6-7.3 18.5-7.9 12.3-1.2 21 6.2 21.1 18.4 0.1 7-1.1 14.1-2.3 21.1-1.8 11.4-4.1 22.9-6.3 34.3-0.5 2.7-1.3 5.3-2 8.2-7.4 0-14.3 0-22 0 2.1-11 4-21.1 5.8-31.2 1.3-6.7 2.6-13.4 3.5-20.2 0.6-4.6 0.6-9.4-4.7-11.8-3.6-1.6-8.5 0.3-12.5 5-4.9 5.8-7.3 12.7-8.7 20-2.1 10.2-3.8 20.4-5.6 30.6-1.4 7.8-1.8 8.2-9.8 8.2q-5.3 0.1-10.6-0.1c-0.7-0.1-1.4-0.5-3.5-1.2z"></path><path fill-rule="evenodd" class="c" d="m825.6 752.4c-15.9-0.3-27.2-9-30.7-24.4-3.9-16.8 3.8-47 28.1-56.9 5-2.1 10.7-3.4 16.1-3.6 16.2-0.7 27.7 8.8 30.7 24.6 3.6 19.8-5.7 51.6-35.3 58.8-2.9 0.7-5.9 1-8.9 1.5zm23.1-52.1q-0.5-0.2-1.1-0.3c0-1 0.1-2.1 0-3-0.8-5.2-2.4-10-7.9-11.9-4.6-1.6-10 0.5-13.8 5.7-2.1 3-4.3 6.4-5.2 10-1.7 6.7-3.2 13.7-3.6 20.7-0.3 5.4 2.1 10.4 7.9 12.5 4.9 1.8 10.2-0.6 14.2-6.2 1-1.4 2.2-2.9 2.7-4.5 2.4-7.6 4.6-15.3 6.8-23z"></path><path fill-rule="evenodd" class="c" d="m1358.3 730.4c0.5 5.7 0.9 10.5 1.3 15.7-13.8 5.1-26.8 8.2-40.6 3.8-11.1-3.5-17.4-11.2-19.1-22.3-2.4-15.7 0.8-30.2 10.3-43.1 9.9-13.4 26.5-19.7 41.4-16 10.3 2.6 16.5 9.3 17.9 19.2 1.4 10.1-2.7 20.1-11.6 24.4-6.5 3.1-13.8 4.6-20.9 6.2-3.6 0.9-7.6 0.3-11.3 0.5-4.7 0.4-5.7 2.2-3.9 6.5 2.4 5.9 7.4 8.3 13.2 8.7 4.2 0.3 8.5-0.4 12.7-1 3.2-0.4 6.3-1.5 10.6-2.6zm-34.9-28.6c5.8 1.6 10.7 0.7 15.5-0.9 2.5-0.8 5.2-1.9 7.2-3.6 2.4-2 3.7-4.9 2.3-8.2-1.4-2.9-3.8-4.9-7.1-4.6-2.7 0.3-5.6 0.8-7.9 2-5.5 3.1-8.7 8-10 15.3z"></path><path fill-rule="evenodd" class="c" d="m1102 719.2c0.3 9.1 4.2 13.7 12.3 14.7 4.5 0.5 9.1-0.2 13.6-0.7 3.2-0.5 6.2-1.6 9.7-2.5 2.8 4.4 2.4 9 2.1 13.4 0 1.2-2 2.8-3.4 3.3-12.1 4.2-24.3 6.6-37.1 2.4-9.7-3.2-16.3-9.8-18.2-19.6-3.8-20.1 0.7-38.4 16.3-52.5 9.9-9 21.9-12.3 35.2-9.1 10 2.4 15.7 8.8 17.5 18.7 1.8 10-2.5 19.7-11.1 24.7-6.8 4.1-14.4 6.1-22.3 6.5-4.7 0.3-9.5 0.5-14.6 0.7zm2.9-16.8c7 0.7 13.9-0.1 20.1-3.7 3.6-2 5-5.8 4.1-8.9-1.1-3.7-4.2-5.6-8.9-5.4-8 0.4-15.3 8.6-15.3 18z"></path><path class="c" d="m1295.8 685.8c-4.7 0-8.5 0-12.2 0-3 0-4.7 1.3-5.3 4.4-2 10.9-4.3 21.8-6.1 32.8-1.1 6.6 1 8.7 8 10 1 0.1 1.9 0.4 3.9 0.9-0.4 4.2-0.7 8.4-1.3 12.6-0.5 3.2-3 4.7-5.9 4.9-4.3 0.3-8.7 0.8-12.9 0.1-10.6-1.7-16-8.4-14.9-19.3 1-10.8 3.4-21.4 5.2-32.2 0.7-4.2 1.3-8.3 2-12.8-3.1-0.9-5.4-1.6-7.7-2.3-1.1-5.9-1-6.3 2.2-15 2.7-0.4 5.6-0.8 9-1.3 0.8-3.2 1.7-6.3 2.3-9.5 0.6-3.3 2-5.4 5.6-6.2 5.8-1.4 11.4-3.2 18.3-5.2-1.1 7.6-2 13.7-3.1 20.8 5.4 0.4 10.2 0.9 16.1 1.4-1.1 5.1-2 9.9-3.2 15.9z"></path><path class="c" d="m519.3 648.4c-1.2 7.2-2.2 13.3-3.3 20.3 5.7 0.3 10.6 0.7 16.3 1.1-1.1 5.3-2 9.9-3.1 15.3-3.6 0.2-7 0.5-10.5 0.7-5.8 0.3-6.4 0.7-7.5 6.3-1.7 8.4-3.4 16.8-5 25.3-0.4 2.2-0.7 4.5-0.7 6.8-0.2 6.1 1 7.5 6.9 8.7 1.5 0.3 2.9 0.6 5 1.1-0.5 4.4-0.4 8.8-1.6 12.8-0.5 1.9-3.2 4.1-5.2 4.4-4.7 0.6-9.7 0.9-14.3 0-9.9-2-14.5-7.7-13.8-17.8 0.8-10.1 2.8-20 4.4-30 0.8-5.2 1.9-10.4 2.9-16.1-3.1-0.9-5.6-1.7-9.2-2.8 0.9-4.7 1.8-9.5 2.7-14.5 3.4-0.5 6.3-0.9 9.7-1.4 1.3-4.7 2.5-9.3 3.8-14.1 6.9-2.6 13.9-4.9 22.5-6.1z"></path><path class="c" d="m1371.6 745.4c1.6-4.8 3.1-9.2 4.9-14.3 3 0.9 5.3 1.9 7.7 2.2 4.7 0.7 9.6 1.8 14.2 1.2 6.9-0.8 9.1-7.8 4.6-13.1-1.4-1.7-3.4-3-5.2-4.3-2.5-1.8-5.2-3.2-7.5-5.2-12.9-10.5-12.4-27.7 1.2-37.4 11.7-8.3 24.6-8.2 37.9-4.9 3.1 0.7 3.9 3.1 3 5.9-1.1 3.5-2.5 7-3.9 10.9-2.1-0.5-3.7-1.1-5.4-1.2-4.3-0.3-8.6-0.8-12.8-0.4-3.1 0.2-5.6 2.3-6.4 5.6-0.7 3.1 0.6 5.5 3 7.4 1.7 1.3 3.7 2.6 5.5 3.9 2.5 1.7 5.1 3.4 7.4 5.2 13.8 10.8 9.3 28.7 0.3 36.5-9.4 8.3-32 13-48.5 2z"></path><path class="c" d="m303.4 671c-1.6 5-3.2 10.2-4.8 15.3-1.6 0.1-2.6 0.3-3.6 0.2-17.2-1.9-29.7 7.9-31.6 24.8-0.3 2.3-0.3 4.6-0.3 6.9 0.4 11 7.7 17 18.7 15.3 2.7-0.5 5.4-1 8.3-1.6 2.1 4.9 1.4 9.4 0.7 13.7-0.2 1.5-2.4 3.4-4 3.9-9.4 2.9-18.8 3.7-28.3 0.2-9.5-3.6-15.9-10.4-17.8-20.2-5-25.9 8.2-50.7 32.4-59.2 10.6-3.8 20.9-3.7 30.3 0.7z"></path><path class="c" d="m993.1 750.2c7.7-40 15-78.1 22.3-116.4 7.8 0 14.7 0 22.3 0-2 10.7-3.8 20.6-5.7 30.5q-7.2 38-14.5 76.1c-0.2 1.2-0.4 2.5-0.7 3.7-1.4 5.6-1.8 5.9-7.8 6-4.7 0.1-9.5 0.1-15.9 0.1z"></path><path class="c" d="m1050.6 669.8c7.3 0 14.2 0 22 0-1.3 7.6-2.5 14.5-3.8 21.4-3.2 16.6-6.4 33.2-9.6 49.9-0.3 1.5-0.6 2.9-0.9 4.4-0.5 2.8-2 4.6-5.1 4.6-5.5 0-11 0-16.4 0-1-6.5 7.5-55.5 13.8-80.3z"></path><path class="c" d="m1054.2 646.9c0.2-7.3 5.4-12.2 12.7-12.1 7 0.1 11.1 4.4 10.8 11.6-0.3 7.4-5.8 12.4-13.5 12-6.6-0.2-10.2-4.4-10-11.5z"></path><path fill-rule="evenodd" class="d" d="m175.9 474c-2.9 15.2-5.7 29.6-8.4 44q-2.9 15.6-5.7 31.3c-0.6 3.7-2.1 6.3-6.3 6.3-16.4-0.1-32.9-0.1-49.4-0.2-0.9 0-1.8-0.6-3.6-1.2 15.4-91.2 37.1-181.3 48.4-272.9 7.2-2.1 45.4-2.1 52.2 0.1-0.8 7.8-1.6 15.8-2.4 23.7q0.6 0.4 1.2 0.8c1.4-1.3 3-2.7 4.4-4.1 16.1-16.2 35.1-25.3 58.3-24.7 25.8 0.7 43.5 13.3 54 36.4 5 11.3 7.4 23.3 7.4 35.5 0.1 30.9-7.7 59.6-25.6 85.1-15.1 21.5-34.9 36.6-60.4 43.5-20.3 5.5-40.5 5.6-60.3-2.6-0.9-0.3-1.9-0.5-3.8-1zm88.9-116.6c-0.6-4.5-0.7-9.1-1.8-13.5-2.6-9.9-9.7-20.4-25.5-18.9-10.5 1.1-18.4 6.7-25 14.5-6.1 7.2-10.5 15.4-13.9 24.2-7.3 19.4-8.7 40-12.7 60.1-0.7 3.5 0.9 5.7 3.9 7.4 12.1 6.7 24.5 7.5 37 1.2 7.6-3.9 13.5-9.8 18.5-16.7 12.5-17.4 18.4-36.9 19.5-58.3z"></path><path fill-rule="evenodd" class="d" d="m1223.1 195c-2.6 14.1-5 27.5-7.5 40.9q-6.2 32.8-12.5 65.6c-4.7 24.9-9.6 49.7-14.4 74.5-6.1 31.6-11.8 63.3-13.7 95.4-0.1 1.3-0.4 2.5-0.5 3.6-5.8 2.2-44.6 2.5-53 0.2 0.5-8.4 1.1-17 1.8-27.4-2.8 3.1-4.5 4.8-6 6.6-12.9 15.1-29.2 24.1-48.9 26.6-29 3.7-54.5-12.8-64.2-41.1-5.1-15-6.2-30.4-4.5-45.8 3.4-32.8 15.9-61.7 40-84.7 26.5-25.2 58.3-35.7 94.7-31.8 4.2 0.4 8.3 1.7 13.3 2.7 0.9-2.9 1.9-5.4 2.4-8 4.6-24.1 9.2-48.2 13.8-72.3 0.7-3.5 1.7-6.4 6.1-6.4 16.5 0.1 32.9 0.1 49.4 0.2 0.9 0 1.8 0.6 3.7 1.2zm-163.2 201.8c0.2 3.1 0.2 6.5 0.7 9.7 0.4 3 1.1 6 1.9 8.9 4.7 15.6 19.3 22.5 34.1 15.9 4.3-1.9 8.4-4.9 11.8-8.1 9.7-9 15.6-20.6 18.7-33.3 4.1-17.4 7.4-35 11-52.6 2.1-10.4 0.7-12.6-9.9-14.7-1.2-0.3-2.5-0.3-3.7-0.5-18.2-2-32.6 5-44.1 18.7-13.6 16.1-19.4 35.1-20.5 56z"></path><path fill-rule="evenodd" class="d" d="m1333.1 475.9c0.7-11.4 1.4-22.2 2.1-33.6-3.6 1-4.4 4.2-6 6.4-9.5 13.4-21.5 23.4-37.1 28.9-26.9 9.5-54.8 1.1-69.6-20.7-6.5-9.6-10.7-20.4-11.4-31.8-3.2-47.3 11.2-87.8 48.2-118.9 16.3-13.8 35.7-22 56.6-26 31.4-6 62.5-3.6 93.2 4.8 5.6 1.5 6.2 2.4 5.1 7.9-5.7 28-11.4 56-17.1 84-6.1 30.6-9.5 61.5-10.3 92.7-0.2 6.6-0.4 7-6.8 7.1-13.7 0.1-27.4 0-41.1 0-1.4 0-2.9-0.4-5.8-0.8zm16-152.4c-18.6-4.2-34.1-0.4-47.1 11.2-18.7 16.6-28.3 37.9-30.3 62.4-0.6 6.9 0.3 14.2 2.1 20.9 3.8 13.7 16.2 19.2 29.3 13.9 7-2.9 12.5-7.5 17-13.5 7.2-9.3 12.6-19.7 15.4-31 4.1-16.2 7.2-32.5 10.7-48.8 1.1-4.9 1.9-9.8 2.9-15.1z"></path><path fill-rule="evenodd" class="d" d="m592.2 276.7c12.4-0.3 27.2 2.5 40.9 10 22.7 12.5 35.7 32.1 38.5 57.6 4.7 43.2-7.2 81.3-40.7 109.9-30.5 26.2-66.4 34.1-105.2 22.2-30-9.3-46.9-31-51.1-61.9-4.4-31.5 2.5-61 20-87.6 20.2-30.5 53.7-50.3 97.6-50.2zm20.4 82.1c-0.5-3.3-0.9-7.8-1.7-12.3-4.9-27.7-32.5-29.6-47.2-18.8-4.6 3.4-8.8 7.7-12.1 12.4-9 12.3-13.7 26.4-16.1 41.3-1.6 10-2.5 20.1-0.4 30.2 4.1 20 23.3 30.1 41.8 21.8 6.4-2.8 11.4-7.5 15.6-13 13.5-17.9 18.2-38.6 20.1-61.6z"></path><path class="d" d="m388.5 475.5c-7.3 1.8-50.8 1.7-57.7-0.3 0.4-2.8 0.7-5.7 1.2-8.6 5-26.3 10-52.7 14.9-79 2.7-14.4 5.6-28.8 7.8-43.3 2.4-16.8 3.9-33.7 6.1-50.5 1.8-13.6 0.1-12.5 14-12.5q14.4-0.1 28.9 0c2.7 0 5.4 0.4 8.7 0.6 1.1 12.2-2.1 23.6-1.4 35.6 1.2-1.5 2.4-2.9 3.4-4.4 9.1-13.7 20.2-25.2 35.7-31.8 10.4-4.3 21-5.1 32.3-3.4 0.1 1.5 0.6 2.7 0.4 3.9-3.1 15.3-6.1 30.7-9.4 46-1.3 6-1.5 6.2-7.5 6-23.2-0.5-39.5 10.4-50.3 30.4-6.9 12.8-10.7 26.7-13.4 40.9-4.1 21.6-8.1 43.2-12.2 64.8-0.4 2-1.1 3.9-1.5 5.6z"></path><path class="d" d="m899.8 476.1c1.3-7.7 2.5-14.6 3.8-21.5q7.4-39.1 14.9-78.2c3.9-20.6 7.9-41.2 11.9-61.9 1.7-9.1 3.5-18.3 5.2-27.5 0.6-3.8 2.4-5.8 6.5-5.8 16 0.2 31.9 0.1 47.9 0.2 1.2 0 2.4 0.4 4.3 0.9-0.1 2.3 0 4.5-0.4 6.7-6.5 33.7-13.1 67.5-19.5 101.3-4.8 25-9.2 50.2-14.2 75.3-2.5 13-1.4 11-13.3 11.1-12.7 0.1-25.4 0.1-38 0-2.7 0-5.4-0.3-9.1-0.6z"></path><path class="d" d="m1007.7 225.7c0 27.4-28.1 37.9-47 30.1-15.1-6.2-20.7-24.7-12.9-40.7 7.9-16.1 28.7-23.2 44.8-15.4 9.5 4.6 15.2 14.4 15.1 26z"></path><path class="d" d="m730 718.8c0.3-11.5 3.7-21.3 11.6-29.1 4-3.9 8.8-6 14.5-4.7 2.9 0.6 5.6 2.1 4.9 5.6-2.1 10.1-4.1 20.2-6.9 30.1-1 3.4-3.8 6.6-6.3 9.2-2.9 3-6.5 4.9-10.9 3.1-4.2-1.7-6.2-5-6.6-9.4-0.2-1.7-0.3-3.5-0.3-4.8z"></path><path class="d" d="m357.7 685.6c-1 5.5-1.6 10.7-2.8 15.8-1.5 6.4-2.9 12.9-5.5 18.9-1.8 4.2-5 8.3-8.5 11.2-5.3 4.3-10.8 2.3-13.2-4.1-0.8-1.8-1.4-3.9-1.3-5.8 0.5-12 4-22.9 12.9-31.5 5.4-5.3 9.2-6.2 18.4-4.5z"></path><path class="d" d="m586.2 686c-2.2 12.6-3.2 25.1-9 36.3-1.8 3.5-4.4 6.9-7.5 9.2-5.8 4.3-12.2 1.4-13.9-5.5-2.9-12 4.9-31.8 15.3-38.5 5.1-3.2 7.8-3.6 15.1-1.5z"></path><path class="d" d="m848.7 700.3c-2.2 7.7-4.4 15.4-6.8 23-0.5 1.6-1.7 3.1-2.7 4.5-4 5.6-9.3 8-14.2 6.2-5.8-2.1-8.2-7.1-7.9-12.5 0.4-7 1.9-14 3.6-20.7 0.9-3.6 3.1-7 5.2-10 3.8-5.2 9.2-7.3 13.8-5.7 5.5 1.9 7.1 6.7 7.9 11.9 0.1 0.9 0 2 0 3q0.6 0.1 1.1 0.3z"></path><path class="d" d="m1323.4 701.8c1.3-7.3 4.5-12.2 10-15.3 2.3-1.2 5.2-1.7 7.9-2 3.3-0.3 5.7 1.7 7.1 4.6 1.4 3.3 0.1 6.2-2.3 8.2-2 1.7-4.7 2.8-7.2 3.6-4.8 1.6-9.7 2.5-15.5 0.9z"></path><path class="d" d="m1104.9 702.4c0-9.4 7.3-17.6 15.3-18 4.7-0.2 7.8 1.7 8.9 5.4 0.9 3.1-0.5 6.9-4.1 8.9-6.2 3.6-13.1 4.4-20.1 3.7z"></path><path class="e" d="m264.8 357.4c-1.1 21.4-7 40.9-19.5 58.3-5 6.9-10.9 12.8-18.5 16.7-12.5 6.3-24.9 5.5-37-1.2-3-1.7-4.6-3.9-3.9-7.4 4-20.1 5.4-40.7 12.7-60.1 3.4-8.8 7.8-17 13.9-24.2 6.6-7.8 14.5-13.4 25-14.5 15.8-1.5 22.9 9 25.5 18.9 1.1 4.4 1.2 9 1.8 13.5z"></path><path class="e" d="m1059.9 396.8c1.1-20.9 6.9-39.9 20.5-56 11.5-13.7 25.9-20.7 44.1-18.7 1.2 0.2 2.5 0.2 3.7 0.5 10.6 2.1 12 4.3 9.9 14.7-3.6 17.6-6.9 35.2-11 52.6-3.1 12.7-9 24.3-18.7 33.3-3.4 3.2-7.5 6.2-11.8 8.1-14.8 6.6-29.4-0.3-34.1-15.9-0.8-2.9-1.5-5.9-1.9-8.9-0.5-3.2-0.5-6.6-0.7-9.7z"></path><path class="e" d="m1349.1 323.5c-1 5.3-1.8 10.2-2.9 15.1-3.5 16.3-6.6 32.6-10.7 48.8-2.8 11.3-8.2 21.7-15.4 31-4.5 6-10 10.6-17 13.5-13.1 5.3-25.5-0.2-29.3-13.9-1.8-6.7-2.7-14-2.1-20.9 2-24.5 11.6-45.8 30.3-62.4 13-11.6 28.5-15.4 47.1-11.2z"></path><path class="e" d="m612.6 358.8c-1.9 23-6.6 43.7-20.1 61.6-4.2 5.5-9.2 10.2-15.6 13-18.5 8.3-37.7-1.8-41.8-21.8-2.1-10.1-1.2-20.2 0.4-30.2 2.4-14.9 7.1-29 16.1-41.3 3.3-4.7 7.5-9 12.1-12.4 14.7-10.8 42.3-8.9 47.2 18.8 0.8 4.5 1.2 9 1.7 12.3z"></path><path class="f" d="m165.2 194l14.7-75.3h52.3l-2.8 14.6h-33l-2.7 14.1h31l-2.9 14.7h-31l-6.2 31.9zm108 0l-2.1-13.7h-30.1l-7.5 13.7h-19.9l42.6-75.3h22.2l13.3 75.3zm-9.2-56.4l-15.7 29h20.2zm66.1 14.5h8.2q6.6 0 10-3.1 3.4-3.1 3.4-9 0-3.8-2.4-5.5-2.3-1.7-7.4-1.7h-8zm3.7 13.4h-6.3l-5.6 28.5h-19.4l14.7-75.4h28.7q12.4 0 18.8 4.7 6.5 4.6 6.5 13.7 0 9.1-5.1 15-5 5.9-13.7 6.8 4 0.8 6.6 4 2.6 3.2 4.6 9.8l6.4 21.4h-19.3l-5.7-18.7q-1.7-5.6-4.2-7.7-2.4-2.1-7-2.1zm48.3 28.5l14.7-75.4h23.9l9.6 40.1 25.5-40.1h24.8l-14.7 75.4h-18.4l10.8-55.6-26.2 41.1h-10.4l-10.4-41.1-10.8 55.6zm153.6 0l-2.1-13.7h-30.1l-7.5 13.7h-19.9l42.6-75.4h22.2l13.3 75.4zm-9.2-56.4l-15.7 29h20.2zm-3.9-26.1l12.5-13.3h14.1l-16.1 13.3zm102.9 62.3l-3.3 16.7q-7 2.4-13.4 3.7-6.4 1.3-12.1 1.3-15.2 0-24.3-8.4-9.1-8.3-9.1-22 0-9 2.9-17 2.9-8 8.5-14.7 6.6-7.7 15.9-11.9 9.3-4.2 20-4.2 5.9 0 11.8 1.4 5.9 1.4 12 4.2l-3.1 15.6q-4.9-3.7-9.8-5.4-4.8-1.7-10.4-1.7-11.7 0-19.6 9-7.9 8.9-7.9 22.4 0 8.7 4.9 13.6 4.8 5 13.4 5 5.1 0 10.8-1.8 5.7-1.9 12.8-5.8zm12.1 20.2l14.7-75.3h19.4l-14.7 75.3zm89.3 0l-2.2-13.7h-30.1l-7.5 13.7h-19.9l42.6-75.3h22.2l13.3 75.3zm-9.2-56.4l-15.7 29h20.2z"></path></svg>